<svg height="512" viewBox="0 0 64 64" width="512" xmlns="http://www.w3.org/2000/svg"><g id="rich"><path d="m25 10h3v7a1 1 0 0 0 1 1h6a1 1 0 0 0 1-1v-7h3a1 1 0 0 0 .65-1.759l-7-6a1 1 0 0 0 -1.3 0l-7 6a1 1 0 0 0 .65 1.759zm7-5.683 4.3 3.683h-1.3a1 1 0 0 0 -1 1v7h-4v-7a1 1 0 0 0 -1-1h-1.3z"/><path d="m28 20h8v2h-8z"/><path d="m28 24h8v2h-8z"/><path d="m28 28h8v2h-8z"/><path d="m47 14h3v7a1 1 0 0 0 1 1h6a1 1 0 0 0 1-1v-7h3a1 1 0 0 0 .65-1.759l-7-6a1 1 0 0 0 -1.3 0l-7 6a1 1 0 0 0 .65 1.759zm7-5.683 4.3 3.683h-1.3a1 1 0 0 0 -1 1v7h-4v-7a1 1 0 0 0 -1-1h-1.3z"/><path d="m50 24h8v2h-8z"/><path d="m50 28h8v2h-8z"/><path d="m3 14h3v7a1 1 0 0 0 1 1h6a1 1 0 0 0 1-1v-7h3a1 1 0 0 0 .65-1.759l-7-6a1 1 0 0 0 -1.3 0l-7 6a1 1 0 0 0 .65 1.759zm7-5.683 4.3 3.683h-1.3a1 1 0 0 0 -1 1v7h-4v-7a1 1 0 0 0 -1-1h-1.3z"/><path d="m6 24h8v2h-8z"/><path d="m6 28h8v2h-8z"/><path d="m59 32h-54a3.009 3.009 0 0 0 -3 3v24a3.009 3.009 0 0 0 3 3h54a3.009 3.009 0 0 0 3-3v-24a3.009 3.009 0 0 0 -3-3zm-55 3a1 1 0 0 1 1-1h1.86a4.017 4.017 0 0 1 -2.86 2.86zm1 25a1 1 0 0 1 -1-1v-1.86a4.017 4.017 0 0 1 2.86 2.86zm55-1a1 1 0 0 1 -1 1h-1.86a4.017 4.017 0 0 1 2.86-2.86zm0-3.91a5.992 5.992 0 0 0 -4.91 4.91h-46.18a5.992 5.992 0 0 0 -4.91-4.91v-16.18a5.992 5.992 0 0 0 4.91-4.91h46.18a5.992 5.992 0 0 0 4.91 4.91zm0-18.23a4.017 4.017 0 0 1 -2.86-2.86h1.86a1 1 0 0 1 1 1z"/><path d="m33 40h-2v2a2 2 0 0 0 -2 2v2a2 2 0 0 0 2 2h2v2h-4v2h2v2h2v-2a2 2 0 0 0 2-2v-2a2 2 0 0 0 -2-2h-2v-2h4v-2h-2z"/><path d="m32 36a11 11 0 1 0 11 11 11.013 11.013 0 0 0 -11-11zm0 20a9 9 0 1 1 9-9 9.01 9.01 0 0 1 -9 9z"/></g></svg>